<svg xmlns="http://www.w3.org/2000/svg" viewBox="0 0 100 100">
  <defs>
    <linearGradient id="grad" x1="0%" y1="0%" x2="100%" y2="100%">
      <stop offset="0%" style="stop-color:#007bff;stop-opacity:1" />
      <stop offset="100%" style="stop-color:#0056b3;stop-opacity:1" />
    </linearGradient>
  </defs>
  <path d="M20 20 Q20 10 30 10 Q40 10 40 20 Q40 30 30 30 Q20 30 20 40 Q20 50 30 50 Q40 50 40 40 Q40 30 50 30 Q60 30 60 40 Q60 50 50 50 Q40 50 40 60 Q40 70 50 70 Q60 70 60 60 Q60 50 70 50 Q80 50 80 60 Q80 70 70 70 Q60 70 60 80 Q60 90 70 90 Q80 90 80 80" fill="url(#grad)" />
</svg>